# xmcd
#
# Track frame offsets:
#	182
#	12465
#	26252
#	40710
#	62957
#	76807
#	88035
#	101375
#	117317
#	131777
#
# Disc length: 1925 seconds
#
# Revision: 2
# Processed by: cddbd v1.5.2PL0 Copyright (c) Steve Scherf et al.
# Submitted via: audiograbber 1.83.01
#
DISCID=7707830a
DTITLE=Various Artist - Rockin' Country
DYEAR=1991
DGENRE=Country
TTITLE0=Hank Williams Jr - I Really Like Girls
TTITLE1=Dwight Yoakam - Little Sister
TTITLE2=Highway 101 - Good Goodbye
TTITLE3=Southern Pacific - Pink Cadillac
TTITLE4=Rodney Crowell - Careful What You Say
TTITLE5=K.D. Lang - Big, Big Love
TTITLE6=Travis Tritt - Son Of The New South
TTITLE7=Billy Hill - I Am Just A Rebel
TTITLE8=Emmylou Harris - Heartbreak Hill
TTITLE9=Kevin Welch - I Am No Drifter
EXTD=
EXTT0=
EXTT1=
EXTT2=
EXTT3=
EXTT4=
EXTT5=
EXTT6=
EXTT7=
EXTT8=
EXTT9=
PLAYORDER=
